<svg width="55" height="58" viewBox="0 0 55 58" fill="none" xmlns="http://www.w3.org/2000/svg">
<path d="M20.5936 0.122722C22.0382 -0.224707 21.9529 2.14025 23.2877 2.18901C23.6291 2.24386 24.2995 2.35967 24.6409 2.42063C24.7384 2.72539 24.9395 3.33491 25.0432 3.64577C23.5193 4.25529 22.2637 5.38291 22.0687 7.10177C21.8249 7.11396 21.3251 7.13225 21.0813 7.14444C20.8192 6.5532 20.5632 5.96196 20.3072 5.37072C19.4051 4.79167 17.4424 4.98672 17.4851 3.62139C19.0393 2.91434 20.1243 1.78063 20.5936 0.122722Z" fill="#FCD2FD"/>
<path d="M7.57913 6.42517C8.47513 5.13298 9.88312 4.69412 11.3582 5.25489C11.4679 7.47965 9.96236 9.4667 10.645 11.7585C11.1509 12.2888 11.6568 12.8191 12.1627 13.3555C12.1079 13.7029 11.9921 14.3977 11.9372 14.7513C11.5593 14.9402 10.8035 15.3181 10.4256 15.5071C9.84046 15.0987 9.25532 14.6842 8.67627 14.2758C7.78027 14.3307 6.89036 14.4221 6.00655 14.5501C4.76922 15.0438 3.92198 16.8176 2.41036 16.1105C0.849982 15.1292 1.92884 13.3798 2.78827 12.3376C2.56274 11.1124 2.71512 9.65565 1.76427 8.70479C1.17912 8.12574 0.386744 6.79698 1.41684 6.23013C2.4957 5.05984 3.71475 6.63851 4.88503 6.82136C5.79322 6.76651 6.68313 6.59584 7.57913 6.42517Z" fill="#FCD2FD"/>
<path d="M16.7603 16.5983C20.6064 13.7884 24.0807 10.4482 28.2133 8.05273C28.4936 10.8809 28.8959 13.6908 29.219 16.5129C25.5984 19.012 22.1729 21.7853 18.7961 24.5952C16.2117 23.5529 13.6273 22.5289 11.043 21.4988C12.5912 19.4874 14.8342 18.2074 16.7603 16.5983Z" fill="#FCD2FD"/>
<path d="M23.6165 7.74239C25.4695 6.12715 28.1148 5.12144 30.5102 6.12715C36.2154 8.33972 41.8961 10.6254 47.5708 12.9112C49.8626 13.7523 51.5327 15.9161 51.74 18.3603C52.642 24.0167 53.3308 29.7035 54.2268 35.3599C54.7937 37.7919 53.794 40.4251 51.8253 41.9367C47.1137 45.606 42.4142 49.2936 37.6965 52.9569C35.9289 54.371 33.5213 54.7976 31.4001 53.9809C30.0653 55.3157 28.8767 56.9371 26.9933 57.5161C21.5441 56.2971 16.0828 55.1512 10.658 53.8407C8.84776 53.4993 8.45766 51.4696 7.93957 50.0068C6.69614 45.7279 5.21499 41.5222 4.02033 37.2372C3.0329 33.8971 6.73271 32.1172 8.43938 29.862C8.19557 26.2902 6.37918 21.9809 9.35975 19.0491C13.9434 15.0811 18.911 11.5641 23.6165 7.74239ZM16.7594 16.5988C14.8333 18.2079 12.5902 19.4879 11.042 21.4993L10.7799 21.3957C10.6763 25.3089 11.7613 29.1062 12.1636 32.9706C12.7609 36.4753 12.8097 40.1142 14.0958 43.4666C19.9716 46.3131 26.1826 48.4281 32.223 50.8845C34.0638 52.0731 36.0325 50.7443 37.4771 49.5679C41.7438 46.1302 46.1628 42.8692 50.4051 39.395C51.9106 38.2612 52.3434 36.3047 51.5937 34.6041C50.8744 28.5942 49.9297 22.5965 48.9971 16.6171C46.303 14.3496 42.7251 13.6913 39.5982 12.2285C35.7826 10.8875 32.1864 8.88829 28.2123 8.05324C24.0798 10.4487 20.6055 13.7889 16.7594 16.5988Z" fill="url(#paint0_linear_6015_78344)"/>
<path d="M28.2109 8.05273C32.185 8.88778 35.7812 10.887 39.5968 12.228C42.7237 13.6908 46.3016 14.3491 48.9957 16.6165C46.454 18.1038 44.1256 19.908 41.785 21.6878C37.7134 19.6885 33.4163 18.2196 29.2167 16.5129C28.8936 13.6908 28.4913 10.8809 28.2109 8.05273Z" fill="#873BCA"/>
<path d="M10.7804 21.3945L11.0425 21.4981C13.6269 22.5282 16.2112 23.5522 18.7956 24.5945C19.5758 29.0441 20.0573 33.5423 20.9289 37.9797C18.6859 39.8509 16.3758 41.6368 14.0962 43.4654C12.8101 40.113 12.7613 36.4741 12.164 32.9694C11.7617 29.105 10.6768 25.3077 10.7804 21.3945Z" fill="#873BCA"/>
<path d="M43.7244 34.4883C46.2478 35.4452 48.7529 36.4631 51.2703 37.4567C51.3922 36.5058 51.4958 35.5549 51.5933 34.6041C52.343 36.3047 51.9103 38.2612 50.4048 39.3949C46.1625 42.8692 41.7434 46.1302 37.4768 49.5679C36.0322 50.7443 34.0634 52.073 32.2227 50.8845C32.7164 50.8235 33.6977 50.7016 34.1914 50.6407C33.8013 48.0624 33.4112 45.4902 33.0638 42.9058C36.7331 40.2605 40.4025 37.5725 43.7244 34.4883Z" fill="#873BCA"/>
<path d="M29.2158 16.5117C33.4154 18.2184 37.7126 19.6873 41.7842 21.6866C42.5461 25.935 43.1008 30.2138 43.7225 34.4866C40.4006 37.5708 36.7313 40.2588 33.0619 42.9041C29.0391 41.2035 24.9431 39.6919 20.9263 37.9791C20.0547 33.5418 19.5732 29.0435 18.793 24.594C22.1697 21.7841 25.5953 19.0108 29.2158 16.5117Z" fill="#E160FB"/>
<path d="M41.7852 21.6884C44.1257 19.9086 46.4541 18.1044 48.9958 16.6172C49.9284 22.5966 50.8732 28.5943 51.5924 34.6042C51.4949 35.5551 51.3912 36.5059 51.2693 37.4568C48.752 36.4633 46.2469 35.4454 43.7234 34.4884C43.1017 30.2157 42.5471 25.9368 41.7852 21.6884Z" fill="#9D49FA"/>
<path d="M20.9265 37.9805C24.9433 39.6932 29.0393 41.2049 33.0621 42.9054C33.4096 45.4898 33.7997 48.062 34.1898 50.6403C33.696 50.7012 32.7147 50.8231 32.221 50.8841C26.1806 48.4277 19.9696 46.3127 14.0938 43.4662C16.3734 41.6376 18.6835 39.8517 20.9265 37.9805Z" fill="#9D49FA"/>
<defs>
<linearGradient id="paint0_linear_6015_78344" x1="55" y1="9.5" x2="-1" y2="61.5" gradientUnits="userSpaceOnUse">
<stop stop-color="#9E4098"/>
<stop offset="1" stop-color="#381736"/>
</linearGradient>
</defs>
</svg>
